<svg xmlns="http://www.w3.org/2000/svg" width="12.66" height="8" viewBox="0 0 12.66 8">
  <path id="Icon_color" data-name="Icon color" d="M12.085,8H9.109a1.71,1.71,0,0,0-.075-1.337L8.2,5.006a2.774,2.774,0,0,0-.276-.434h2.3a1.72,1.72,0,0,1,1.542.948L12.6,7.171a.566.566,0,0,1-.024.556A.573.573,0,0,1,12.085,8Zm-4.6,0H.574a.575.575,0,0,1-.489-.273.566.566,0,0,1-.023-.556L.89,5.52a1.719,1.719,0,0,1,1.544-.948H5.62a1.719,1.719,0,0,1,1.544.948l.829,1.651a.565.565,0,0,1-.023.556A.575.575,0,0,1,7.481,8ZM8.632,3.429a1.714,1.714,0,1,1,1.727-1.715A1.723,1.723,0,0,1,8.632,3.429Zm-4.6,0A1.714,1.714,0,1,1,5.754,1.714,1.723,1.723,0,0,1,4.027,3.429Z" transform="translate(0.001)" fill="#ababab"/>
</svg>
