<svg xmlns="http://www.w3.org/2000/svg" width="59" height="43" viewBox="0 0 59 43">
  <path id="Icon_color" data-name="Icon color" d="M44.25,43H13.41a13.437,13.437,0,0,1,0-26.875,16.079,16.079,0,0,1,31.947-2.632A14.775,14.775,0,0,1,44.25,43ZM29.5,10.75a1.339,1.339,0,0,0-.95.4l-9.481,9.5a1.339,1.339,0,0,0,0,1.9l.555.556a1.322,1.322,0,0,0,.946.4h3.563V33.594a1.344,1.344,0,0,0,1.342,1.342h8.045a1.342,1.342,0,0,0,1.34-1.342V23.5h3.563a1.324,1.324,0,0,0,.949-.4l.555-.556a1.344,1.344,0,0,0,0-1.9l-9.478-9.5A1.332,1.332,0,0,0,29.5,10.75Z"/>
</svg>
