<svg xmlns="http://www.w3.org/2000/svg" width="12" height="8" viewBox="0 0 12 8">
  <path id="Icon_color" data-name="Icon color" d="M8.4,8H1.2A1.174,1.174,0,0,1,0,6.857V1.143A1.174,1.174,0,0,1,1.2,0H8.4A1.174,1.174,0,0,1,9.6,1.143V2.857l1.626-1.549a.612.612,0,0,1,.42-.166H11.7a.293.293,0,0,1,.3.286V6.572a.293.293,0,0,1-.3.285h-.054a.612.612,0,0,1-.42-.166L9.6,5.143V6.857A1.174,1.174,0,0,1,8.4,8ZM1.2,1.143V6.857H8.4V1.143ZM5.1,3.36H2.7a.293.293,0,0,1-.3-.285V2.64a.293.293,0,0,1,.3-.285H5.1a.293.293,0,0,1,.3.285v.435A.293.293,0,0,1,5.1,3.36Z" fill="#ababab"/>
</svg>
